<svg xmlns="http://www.w3.org/2000/svg" width="42.696" height="46.396" viewBox="0 0 42.696 46.396">
  <g id="Group_252" data-name="Group 252" transform="translate(-1012.831 -1465.852)">
    <path id="Icon_awesome-hand-holding" data-name="Icon awesome-hand-holding" d="M41.9,23.249a2.1,2.1,0,0,0-3.158,0l-6.849,6.83a4.176,4.176,0,0,1-2.965,1.294H20.161a1.515,1.515,0,0,1,0-2.957h5.8a2.661,2.661,0,0,0,2.468-2.458c.245-1.848-.9-3.457-2.342-3.457H14.231a7.735,7.735,0,0,0-5.492,2.431L5.292,28.415H1.186A1.361,1.361,0,0,0,0,29.894v8.872a1.361,1.361,0,0,0,1.186,1.479H27.632A4.2,4.2,0,0,0,30.6,38.951L41.8,27.768A3.45,3.45,0,0,0,41.9,23.249Z" transform="translate(1012.831 1472.004)" fill="#fafafa"/>
    <g id="Icon_feather-shopping-bag" data-name="Icon feather-shopping-bag" transform="translate(1021.473 1466.752)">
      <path id="Path_179" data-name="Path 179" d="M6.816,2.167,3.25,6.922V23.564a2.377,2.377,0,0,0,2.377,2.377H22.269a2.377,2.377,0,0,0,2.377-2.377V6.922L21.081,2.167Z" transform="translate(-3.25 -2.167)" fill="none" stroke="#fff" stroke-linecap="round" stroke-linejoin="round" stroke-width="1.8"/>
      <path id="Path_180" data-name="Path 180" d="M3.25,6.5h21.4" transform="translate(-3.25 -1.745)" fill="none" stroke="#fff" stroke-linecap="round" stroke-linejoin="round" stroke-width="1.8"/>
      <path id="Path_181" data-name="Path 181" d="M18.176,10.833a4.755,4.755,0,0,1-9.51,0" transform="translate(-2.723 -1.324)" fill="none" stroke="#fff" stroke-linecap="round" stroke-linejoin="round" stroke-width="1.8"/>
    </g>
  </g>
</svg>
