<svg id="Group_4" data-name="Group 4" xmlns="http://www.w3.org/2000/svg" width="263.572" height="78.804" viewBox="0 0 263.572 78.804">
  <path id="Path_5" data-name="Path 5" d="M1428.746-68.99v78.8h78.8v-78.8Zm23.517,56.305h-10.583V-46.455h10.583l-5.292,16.885ZM1488.98,5.289l-36.717-34.878,36.717-34.877h5.52l-21.607,34.877,21.723,34.877Z" transform="translate(-1428.746 68.99)" fill="#fafafa"/>
  <path id="Path_6" data-name="Path 6" d="M1622.912-28.334h-7.036l-11.267-8.278v8.278h-4.414l-.86-9.406.86-9.41h4.414v7.841l10.428-7.841h6.344l-12.469,8.862Z" transform="translate(-1501.878 59.627)" fill="#fafafa"/>
  <path id="Path_7" data-name="Path 7" d="M1668.512-28.334h-4.925l-2.259-4.121-5.872.859-6.054-.859-2.188,4.121h-4.374l10.648-18.816h4.229Zm-9.008-7.511-4.047-7.658-4.194,7.658Z" transform="translate(-1520.529 59.627)" fill="#fafafa"/>
  <path id="Path_8" data-name="Path 8" d="M1699.515-28.334h-4.375v-14.6L1686.5-43.8v-3.356h21.7V-43.8l-8.681.859Z" transform="translate(-1539.245 59.627)" fill="#fafafa"/>
  <path id="Path_9" data-name="Path 9" d="M1755.529-28.334h-6.271l-7.584-7.111h-4.157v7.111h-4.3l-.86-9.406.86-9.41h16.117q4.228,0,4.23,3.646v4.414q0,2.733-2.188,3.391a22.436,22.436,0,0,1-4.522.255Zm-6.2-11.815V-42.41a1.27,1.27,0,0,0-.548-1.239,2.832,2.832,0,0,0-1.422-.255h-9.845v5.251h9.845a2.832,2.832,0,0,0,1.422-.255,1.272,1.272,0,0,0,.548-1.24" transform="translate(-1558.903 59.627)" fill="#fafafa"/>
  <path id="Path_10" data-name="Path 10" d="M1828.345-28.334h-19.437l-.86-9.406.86-9.41h19.253v3.21h-14.877v4.193h8.68v3.21h-8.68v4.666h15.061Z" transform="translate(-1591.354 59.627)" fill="#fafafa"/>
  <path id="Path_11" data-name="Path 11" d="M1875.584-28.334H1857.1l-.86-9.406.86-9.41h4.376v15.279h14.111Z" transform="translate(-1612.012 59.627)" fill="#fafafa"/>
  <path id="Path_12" data-name="Path 12" d="M1623.059,19.591q0,5.47-4.156,8.059-2.371,1.458-7.732,1.459h-10.976l-.86-9.41.86-9.406H1612.3q4.884,0,7.656,2.189,3.1,2.406,3.1,7.11m-4.521-.074q0-5.87-6.2-5.87h-7.766V25.572h5.651a12.517,12.517,0,0,0,5.834-1.021q2.482-1.386,2.481-5.033" transform="translate(-1501.878 35.001)" fill="#fafafa"/>
  <path id="Path_13" data-name="Path 13" d="M1673.692,29.109h-19.435l-.86-9.407.86-9.409h19.253V13.5h-14.877V17.7h8.677V20.9h-8.677v4.667h15.059Z" transform="translate(-1525.054 35.001)" fill="#fafafa"/>
  <path id="Path_14" data-name="Path 14" d="M1707.79,23.283l7.26-12.989h4.374l-10.354,18.816h-3.027l-5.434-9.41-5.433-9.406h5Z" transform="translate(-1542.965 35.001)" fill="#fafafa"/>
  <rect id="Rectangle_6" data-name="Rectangle 6" width="0.86" height="0.051" transform="translate(173.45 21.887)" fill="#fafafa"/>
  <path id="Path_15" data-name="Path 15" d="M1790.042-28.331h-6.389V-47.15h6.389l-1.889,9.41Z" transform="translate(-1580.896 59.627)" fill="#fafafa"/>
  <rect id="Rectangle_7" data-name="Rectangle 7" width="0.86" height="0.05" transform="translate(128.343 54.703)" fill="#fafafa"/>
  <rect id="Rectangle_8" data-name="Rectangle 8" width="0.86" height="0.051" transform="translate(161.863 54.701)" fill="#fafafa"/>
</svg>
