<svg xmlns="http://www.w3.org/2000/svg" width="636" height="727" viewBox="0 0 636 727">
  <g id="Group_36" data-name="Group 36" transform="translate(-114 -47)">
    <g id="Rectangle_1" data-name="Rectangle 1" transform="translate(114 138)" fill="#fff" stroke="#000" stroke-width="5">
      <rect width="636" height="636" stroke="none"/>
      <rect x="2.5" y="2.5" width="631" height="631" fill="none"/>
    </g>
    <rect id="Rectangle_2" data-name="Rectangle 2" width="236" height="210" transform="translate(138 47)" fill="#fff"/>
    <g id="Group_35" data-name="Group 35" transform="translate(15 -218.335)">
      <g id="Group_2" data-name="Group 2" transform="translate(185.739 316.426)">
        <g id="Group_1" data-name="Group 1">
          <path id="Path_1" data-name="Path 1" d="M117.4,136.275a13.188,13.188,0,1,0,13.189,13.188A13.2,13.2,0,0,0,117.4,136.275Zm0,21.377a8.188,8.188,0,1,1,8.189-8.188A8.2,8.2,0,0,1,117.4,157.652Z" transform="translate(-104.213 -136.275)"/>
        </g>
      </g>
      <g id="Group_4" data-name="Group 4" transform="translate(241.853 377.885)">
        <g id="Group_3" data-name="Group 3" transform="translate(0)">
          <path id="Path_2" data-name="Path 2" d="M285.737,320.646a13.188,13.188,0,1,0,13.188,13.188A13.2,13.2,0,0,0,285.737,320.646Zm0,21.376a8.188,8.188,0,1,1,8.188-8.188A8.2,8.2,0,0,1,285.738,342.022Z" transform="translate(-272.549 -320.646)"/>
        </g>
      </g>
      <g id="Group_6" data-name="Group 6" transform="translate(193.755 372.54)">
        <g id="Group_5" data-name="Group 5" transform="translate(0 0)">
          <path id="Path_3" data-name="Path 3" d="M138.776,304.613a10.517,10.517,0,1,0,10.517,10.517A10.528,10.528,0,0,0,138.776,304.613Zm0,16.033a5.516,5.516,0,1,1,5.517-5.516A5.522,5.522,0,0,1,138.776,320.646Z" transform="translate(-128.26 -304.613)"/>
        </g>
      </g>
      <g id="Group_8" data-name="Group 8" transform="translate(225.821 335.131)">
        <g id="Group_7" data-name="Group 7">
          <path id="Path_4" data-name="Path 4" d="M232.3,192.388a7.844,7.844,0,1,0,7.844,7.844A7.853,7.853,0,0,0,232.3,192.388Zm0,10.688a2.844,2.844,0,1,1,2.844-2.844A2.848,2.848,0,0,1,232.3,203.076Z" transform="translate(-224.454 -192.388)"/>
        </g>
      </g>
      <g id="Group_10" data-name="Group 10" transform="translate(279.262 372.539)">
        <g id="Group_9" data-name="Group 9" transform="translate(0)">
          <path id="Path_5" data-name="Path 5" d="M392.182,311.337l-2.672-5.344a2.5,2.5,0,1,0-4.472,2.236l2.672,5.345a2.5,2.5,0,1,0,4.472-2.236Z" transform="translate(-384.773 -304.61)"/>
        </g>
      </g>
      <g id="Group_12" data-name="Group 12" transform="translate(252.541 359.179)">
        <g id="Group_11" data-name="Group 11" transform="translate(0 0)">
          <path id="Path_6" data-name="Path 6" d="M314.693,265.914a2.5,2.5,0,0,0-3.354-1.118l-5.344,2.672a2.5,2.5,0,1,0,2.236,4.472l5.344-2.672A2.5,2.5,0,0,0,314.693,265.914Z" transform="translate(-304.612 -264.531)"/>
        </g>
      </g>
      <g id="Group_14" data-name="Group 14" transform="translate(177.722 351.162)">
        <g id="Group_13" data-name="Group 13" transform="translate(0 0)">
          <path id="Path_7" data-name="Path 7" d="M87.571,247.209,84.9,241.865a2.5,2.5,0,1,0-4.472,2.236l2.672,5.344a2.5,2.5,0,0,0,4.472-2.236Z" transform="translate(-80.162 -240.482)"/>
        </g>
      </g>
      <g id="Group_16" data-name="Group 16" transform="translate(215.132 401.932)">
        <g id="Group_15" data-name="Group 15" transform="translate(0 0)">
          <path id="Path_8" data-name="Path 8" d="M202.469,394.17a2.5,2.5,0,0,0-3.354-1.118l-5.344,2.672a2.5,2.5,0,1,0,2.236,4.472l5.344-2.672A2.5,2.5,0,0,0,202.469,394.17Z" transform="translate(-192.388 -392.787)"/>
        </g>
      </g>
      <g id="Group_18" data-name="Group 18" transform="translate(217.804 297.721)">
        <g id="Group_17" data-name="Group 17" transform="translate(0 0)">
          <path id="Path_9" data-name="Path 9" d="M207.346,83.567l-2.672-2.672a2.5,2.5,0,1,0-3.535,3.535l2.672,2.672a2.5,2.5,0,1,0,3.535-3.535Z" transform="translate(-200.406 -80.162)"/>
        </g>
      </g>
      <g id="Group_20" data-name="Group 20" transform="translate(212.46 359.179)">
        <g id="Group_19" data-name="Group 19" transform="translate(0 0)">
          <path id="Path_10" data-name="Path 10" d="M191.313,267.937l-2.672-2.672a2.5,2.5,0,1,0-3.535,3.535l2.672,2.672a2.5,2.5,0,0,0,3.535-3.535Z" transform="translate(-184.373 -264.532)"/>
        </g>
      </g>
      <g id="Group_22" data-name="Group 22" transform="translate(244.525 415.294)">
        <g id="Group_21" data-name="Group 21" transform="translate(0 0)">
          <path id="Path_11" data-name="Path 11" d="M283.066,432.87a2.5,2.5,0,0,0-2.5,2.5v2.672a2.5,2.5,0,0,0,5,0V435.37A2.5,2.5,0,0,0,283.066,432.87Z" transform="translate(-280.566 -432.87)"/>
        </g>
      </g>
      <g id="Group_24" data-name="Group 24" transform="translate(228.493 313.754)">
        <g id="Group_23" data-name="Group 23" transform="translate(0 0)">
          <path id="Path_12" data-name="Path 12" d="M239.41,128.993a2.5,2.5,0,0,0-3.535,0l-2.672,2.672a2.5,2.5,0,1,0,3.535,3.535l2.672-2.672A2.5,2.5,0,0,0,239.41,128.993Z" transform="translate(-232.47 -128.26)"/>
        </g>
      </g>
      <g id="Group_26" data-name="Group 26" transform="translate(267.37 283.416)">
        <g id="Group_25" data-name="Group 25" transform="translate(0 0)">
          <path id="Path_13" data-name="Path 13" d="M376.083,40.17A10.4,10.4,0,0,0,365.8,37.7l-8.44,2.532a10.584,10.584,0,0,0-7.352,8.344l-.767,4.6a10.538,10.538,0,0,0,6.681,11.576L362.71,67.3A10.516,10.516,0,0,0,376.6,60l2.419-9.677A10.4,10.4,0,0,0,376.083,40.17Zm-1.91,8.945-2.419,9.677a5.517,5.517,0,0,1-7.289,3.827l-6.787-2.545a5.527,5.527,0,0,1-3.5-6.072l.767-4.6a5.552,5.552,0,0,1,3.856-4.377l8.44-2.532a5.6,5.6,0,0,1,1.611-.239,5.526,5.526,0,0,1,5.326,6.86Z" transform="translate(-349.099 -37.249)"/>
        </g>
      </g>
      <g id="Group_28" data-name="Group 28" transform="translate(289.114 321.199)">
        <g id="Group_27" data-name="Group 27" transform="translate(0)">
          <path id="Path_14" data-name="Path 14" d="M436.736,160.194a7.772,7.772,0,0,0-3.085-5.365l-3.546-2.659a7.8,7.8,0,0,0-8.215-.741l-3.227,1.613a7.852,7.852,0,0,0-3.7,10.106l2.6,6.058a7.792,7.792,0,0,0,6.077,4.672,8.01,8.01,0,0,0,1.155.084,7.784,7.784,0,0,0,6-2.824l4.177-5.012A7.774,7.774,0,0,0,436.736,160.194Zm-5.607,2.731-4.177,5.012a2.844,2.844,0,0,1-4.8-.7l-2.6-6.058a2.847,2.847,0,0,1,1.342-3.664l3.228-1.613a2.828,2.828,0,0,1,2.978.268l3.546,2.659a2.844,2.844,0,0,1,.478,4.1Z" transform="translate(-414.328 -150.593)"/>
        </g>
      </g>
      <g id="Group_30" data-name="Group 30" transform="translate(305.984 300.394)">
        <g id="Group_29" data-name="Group 29" transform="translate(0 0)">
          <path id="Path_15" data-name="Path 15" d="M472.78,88.18a7.844,7.844,0,1,0,7.844,7.844A7.853,7.853,0,0,0,472.78,88.18Zm0,10.688a2.844,2.844,0,1,1,2.844-2.844A2.848,2.848,0,0,1,472.78,98.868Z" transform="translate(-464.936 -88.18)"/>
        </g>
      </g>
      <g id="Group_31" data-name="Group 31" transform="translate(179.216 271)">
        <path id="Path_16" data-name="Path 16" d="M224.583,94.788a5.326,5.326,0,0,0-4.557-1.514,23.8,23.8,0,0,1-3.441.252,24.136,24.136,0,0,1-23.049-16.8,7.769,7.769,0,0,0-5.9-5.306A40.223,40.223,0,0,1,161.7,9.6a5.18,5.18,0,0,0-3.317-7.975A85.978,85.978,0,0,0,132.448.5a84.374,84.374,0,0,0-46.956,20.78A2.5,2.5,0,0,0,88.8,25.034,79.4,79.4,0,0,1,132.983,5.475a80.988,80.988,0,0,1,24.431,1.059.191.191,0,0,1,.156.114.176.176,0,0,1-.027.18,45.224,45.224,0,0,0,29.155,69.5,2.774,2.774,0,0,1,2.076,1.923,29.121,29.121,0,0,0,27.81,20.275,28.8,28.8,0,0,0,4.167-.306.255.255,0,0,1,.282.109A80.04,80.04,0,0,1,202.1,138.341a2.5,2.5,0,0,0,3.756,3.3A85.035,85.035,0,0,0,225.97,99.132,4.989,4.989,0,0,0,224.583,94.788Z" transform="translate(-84.645 -0.002)"/>
      </g>
      <g id="Group_34" data-name="Group 34" transform="translate(151 299.22)">
        <g id="Group_33" data-name="Group 33" transform="translate(0)">
          <path id="Path_17" data-name="Path 17" d="M141.869,202.336a2.5,2.5,0,0,0-3.528-.225,80.275,80.275,0,0,1-113.3-113.3,2.5,2.5,0,1,0-3.755-3.3A85.28,85.28,0,0,0,141.643,205.865,2.5,2.5,0,0,0,141.869,202.336Z" transform="translate(0.001 -84.658)"/>
        </g>
      </g>
    </g>
  </g>
</svg>
