<svg xmlns="http://www.w3.org/2000/svg" width="636" height="727" viewBox="0 0 636 727">
  <g id="Group_37" data-name="Group 37" transform="translate(-1059 -47)">
    <g id="Rectangle_3" data-name="Rectangle 3" transform="translate(1059 138)" fill="#fff" stroke="#000" stroke-width="5">
      <rect width="636" height="636" stroke="none"/>
      <rect x="2.5" y="2.5" width="631" height="631" fill="none"/>
    </g>
    <rect id="Rectangle_4" data-name="Rectangle 4" width="236" height="210" transform="translate(1083 47)" fill="#fff"/>
    <g id="cookie" transform="translate(1106.948 51.297)">
      <path id="Path_18" data-name="Path 18" d="M165.45,5.986a62.4,62.4,0,0,1,18.563-.435l-2.035,4.909A9.067,9.067,0,0,0,190.377,23a8.973,8.973,0,0,0,1.735-.169l3.043-.6a9.06,9.06,0,0,0,6.9-6.2L203.5,11.4a62.09,62.09,0,0,1,34.635,51.824,2.528,2.528,0,0,0,2.521,2.372q.078,0,.159-.005a2.528,2.528,0,0,0,2.367-2.68A67.162,67.162,0,0,0,164.581,1a2.528,2.528,0,1,0,.869,4.981Zm31.778,8.539a4.009,4.009,0,0,1-3.053,2.743l-3.043.6a4.013,4.013,0,0,1-4.483-5.472l2.477-5.977a61.645,61.645,0,0,1,9.716,2.926Z" transform="translate(-105.023)"/>
      <path id="Path_19" data-name="Path 19" d="M35.583,125.271A62.077,62.077,0,0,1,50.391,15.928,2.528,2.528,0,0,0,48.7,11.163,67.134,67.134,0,0,0,32.679,129.412a2.528,2.528,0,0,0,2.9-4.14Z" transform="translate(0 -7.303)"/>
      <path id="Path_20" data-name="Path 20" d="M236.5,148.766a5.04,5.04,0,0,0-4.264-2.417,5.171,5.171,0,0,0-4.414,2.385,10.706,10.706,0,0,1-16.935,1.406,6.174,6.174,0,0,0-6.68-1.643,11.837,11.837,0,0,1-15.819-11.14v-.7a6.41,6.41,0,0,0-4.247-6.054A8.09,8.09,0,0,1,178.768,123l0-1.093a4.966,4.966,0,0,0-5.4-4.953,67.165,67.165,0,0,0-52.287,33.356q-.053.093-.1.189l-4.6,9.787c-.03.064-.058.129-.082.2a68.708,68.708,0,0,0-1.312,43.223c5.424,18.8,25.055,38.626,43.761,44.19a71.926,71.926,0,0,0,20.507,3.025,67.157,67.157,0,0,0,18.388-2.541,2.528,2.528,0,0,0-1.384-4.864,64.492,64.492,0,0,1-36.07-.468c-16.952-5.042-35.428-23.7-40.344-40.745a63.7,63.7,0,0,1,1.158-39.964l4.507-9.592A62.1,62.1,0,0,1,173.713,122l0,1a13.156,13.156,0,0,0,8.746,12.38,1.346,1.346,0,0,1,.879,1.28v.7a16.893,16.893,0,0,0,22.583,15.9,1.119,1.119,0,0,1,1.229.283,15.763,15.763,0,0,0,24.93-2.068c.056-.086.12-.066.116-.062a62.084,62.084,0,0,1-26.1,88.377,2.528,2.528,0,1,0,2.19,4.558,67.151,67.151,0,0,0,28.224-95.58Z" transform="translate(-71.647 -77.512)"/>
      <path id="Path_21" data-name="Path 21" d="M118.7,80.171a6.585,6.585,0,0,0,11.242-4.656V66.6a6.592,6.592,0,0,0-6.585-6.585h-4.974A6.593,6.593,0,0,0,111.8,66.6V70.54a6.541,6.541,0,0,0,1.929,4.656ZM116.853,66.6a1.53,1.53,0,0,1,1.528-1.528h4.974a1.53,1.53,0,0,1,1.528,1.528v8.919a1.528,1.528,0,0,1-2.609,1.081L117.3,71.621a1.519,1.519,0,0,1-.448-1.081Z" transform="translate(-71.422 -39.78)"/>
      <path id="Path_22" data-name="Path 22" d="M62.4,173.327a6.767,6.767,0,0,0,1.3-7.936l-.731-1.435a6.761,6.761,0,0,0-7.7-3.507l-2.309.577a6.83,6.83,0,0,0-4.6,3.931l-.616,1.448a6.8,6.8,0,0,0,2.095,8.034l1.706,1.32a6.819,6.819,0,0,0,8.912-.521Zm-3.539-3.612-1.949,1.91a1.744,1.744,0,0,1-2.279.133l-1.706-1.32a1.737,1.737,0,0,1-.536-2.054l.616-1.448a1.746,1.746,0,0,1,1.177-1l2.309-.577a1.769,1.769,0,0,1,.427-.053,1.728,1.728,0,0,1,1.542.949l.731,1.435a1.73,1.73,0,0,1-.332,2.029Z" transform="translate(-28.6 -106.222)"/>
      <path id="Path_23" data-name="Path 23" d="M224.993,267.86a7.664,7.664,0,0,0,5.6,10.516l4.88.945a7.609,7.609,0,0,0,1.449.139,7.662,7.662,0,0,0,7.617-6.74l.486-4.009a7.7,7.7,0,0,0-4.628-7.984l-3.45-1.456a7.676,7.676,0,0,0-10.036,4.069Zm4.656,1.974,1.917-4.52a2.608,2.608,0,0,1,3.414-1.384l3.45,1.456A2.618,2.618,0,0,1,240,268.1l-.486,4.009a2.607,2.607,0,0,1-3.084,2.246l-4.88-.945a2.608,2.608,0,0,1-1.9-3.577Z" transform="translate(-146.053 -171.466)"/>
      <path id="Path_24" data-name="Path 24" d="M361.795,365.2l4.269-5.074a7.708,7.708,0,0,0-.341-10.322l-3.649-3.8a7.722,7.722,0,0,0-11.029-.111l-4.221,4.22a7.738,7.738,0,0,0-.646,10.188l3.6,4.651a7.689,7.689,0,0,0,5.95,2.993l.16,0a7.685,7.685,0,0,0,5.907-2.751Zm-5.963-2.307a2.654,2.654,0,0,1-2.054-1.033l-3.6-4.651a2.671,2.671,0,0,1,.223-3.517l4.221-4.22a2.645,2.645,0,0,1,1.884-.781h.028a2.645,2.645,0,0,1,1.9.819l3.649,3.8a2.661,2.661,0,0,1,.118,3.563l-4.269,5.074a2.679,2.679,0,0,1-2.094.95Z" transform="translate(-225.721 -227.785)"/>
      <path id="Path_25" data-name="Path 25" d="M350.134,279.784a5.5,5.5,0,0,0,4.7-8.359l-2.8-4.612a5.482,5.482,0,0,0-6-2.488l-3.237.787a5.481,5.481,0,0,0-4.146,6.123l.546,3.825a5.529,5.529,0,0,0,5.446,4.723Zm-5.933-5.438-.546-3.825a.443.443,0,0,1,.335-.495l3.236-.787h0a.442.442,0,0,1,.484.2l2.8,4.612a.444.444,0,0,1-.38.675h-5.493A.447.447,0,0,1,344.2,274.346Z" transform="translate(-221.761 -175.112)"/>
      <path id="Path_26" data-name="Path 26" d="M430.462,302.87a6.112,6.112,0,0,0-.172-4.731l-1.832-3.981a6.154,6.154,0,0,0-8.448-2.88l-2.4,1.259a6.154,6.154,0,0,0-2.552,8.391l2.021,3.718a6.182,6.182,0,0,0,5.429,3.211,6.092,6.092,0,0,0,2.5-.537l2.215-1A6.114,6.114,0,0,0,430.462,302.87Zm-4.736-1.774a1.093,1.093,0,0,1-.577.616l-2.215,1a1.1,1.1,0,0,1-1.415-.477l-2.021-3.719a1.1,1.1,0,0,1,.455-1.5l2.4-1.259a1.1,1.1,0,0,1,1.507.514l1.832,3.981A1.093,1.093,0,0,1,425.727,301.1Z" transform="translate(-271.949 -192.619)"/>
      <path id="Path_27" data-name="Path 27" d="M235.382,381.1l3.6,1.573a8.085,8.085,0,0,0,10.444-3.746l1.721-3.387a8.085,8.085,0,0,0-3.731-10.961l-3.538-1.685a8.041,8.041,0,0,0-10.68,3.627l-1.784,3.5a8.084,8.084,0,0,0,3.967,11.08Zm.539-8.784,1.784-3.5a3.01,3.01,0,0,1,2.688-1.658,3.048,3.048,0,0,1,1.312.3l3.538,1.685a3.028,3.028,0,0,1,1.4,4.105l-1.721,3.387a3.031,3.031,0,0,1-3.912,1.4l-3.6-1.573a3.029,3.029,0,0,1-1.486-4.15Z" transform="translate(-150.132 -240.029)"/>
      <path id="Path_28" data-name="Path 28" d="M238.31,184.843h3.515a5.811,5.811,0,0,0,5.7-4.555l1.467-6.5a5.842,5.842,0,0,0-7.865-6.713l-4.982,1.989a5.813,5.813,0,0,0-3.676,5.426V179a5.848,5.848,0,0,0,5.842,5.842Zm-.785-10.351a.782.782,0,0,1,.494-.73L243,171.774a.808.808,0,0,1,.3-.061.774.774,0,0,1,.5.193.757.757,0,0,1,.257.77l-1.467,6.5a.781.781,0,0,1-.766.612H238.31a.786.786,0,0,1-.785-.785Z" transform="translate(-151.413 -110.476)"/>
      <path id="Path_29" data-name="Path 29" d="M207.56,87.911h-2.622a2.528,2.528,0,1,0,0,5.057h2.622a2.528,2.528,0,0,0,0-5.057Z" transform="translate(-131.487 -58.275)"/>
      <path id="Path_30" data-name="Path 30" d="M289.3,75.346a2.528,2.528,0,0,0,0,5.057h3.227a2.528,2.528,0,0,0,0-5.057Z" transform="translate(-187.411 -49.946)"/>
      <path id="Path_31" data-name="Path 31" d="M114.649,148.612h4.014a2.528,2.528,0,0,0,0-5.057h-4.014a2.528,2.528,0,1,0,0,5.057Z" transform="translate(-71.637 -95.16)"/>
      <path id="Path_32" data-name="Path 32" d="M60.74,244.073a2.528,2.528,0,0,0,0,5.057h2.38a2.528,2.528,0,0,0,0-5.057Z" transform="translate(-35.902 -161.792)"/>
      <path id="Path_33" data-name="Path 33" d="M70.462,118.1a2.528,2.528,0,1,0,0-5.057H67.8a2.528,2.528,0,1,0,0,5.057Z" transform="translate(-40.581 -74.932)"/>
      <path id="Path_34" data-name="Path 34" d="M190.148,239.421a2.528,2.528,0,0,0-2.528-2.528h-3.026a2.528,2.528,0,1,0,0,5.057h3.026A2.528,2.528,0,0,0,190.148,239.421Z" transform="translate(-118.002 -157.032)"/>
      <path id="Path_35" data-name="Path 35" d="M193.569,348.687h2.622a2.528,2.528,0,1,0,0-5.057h-2.622a2.528,2.528,0,0,0,0,5.057Z" transform="translate(-123.952 -227.786)"/>
      <path id="Path_36" data-name="Path 36" d="M298.187,336.486a2.528,2.528,0,0,0,0-5.057h-4.1a2.528,2.528,0,1,0,0,5.057Z" transform="translate(-190.583 -219.698)"/>
      <path id="Path_37" data-name="Path 37" d="M303.062,453.159h2.421a2.528,2.528,0,1,0,0-5.057h-2.421a2.528,2.528,0,1,0,0,5.057Z" transform="translate(-196.533 -297.039)"/>
      <path id="Path_38" data-name="Path 38" d="M436.375,367.328h-2.492a2.528,2.528,0,0,0,0,5.057h2.492a2.528,2.528,0,0,0,0-5.057Z" transform="translate(-283.251 -243.495)"/>
    </g>
  </g>
</svg>
